<svg xmlns="http://www.w3.org/2000/svg" shape-rendering="geometricPrecision" text-rendering="geometricPrecision" image-rendering="optimizeQuality" fill-rule="evenodd" clip-rule="evenodd" viewBox="0 0 388.468 510.435"><path fill-rule="nonzero" d="M117.655 0h128.889c26.828 0 48.815 21.987 48.815 48.815v59.452a183.108 183.108 0 0115.504 13.831c26.577 26.577 44.972 61.336 51.1 100.172h17.104c5.172 0 9.401 4.249 9.401 9.4v38.387c0 6.011-4.954 10.965-10.966 10.965h-15.79c-6.367 38.205-24.63 72.385-50.849 98.604-4.9 4.9-10.081 9.519-15.513 13.838l.009 68.156c0 26.828-21.987 48.815-48.815 48.815H117.655c-26.828 0-48.815-21.987-48.815-48.815v-68.163a183.263 183.263 0 01-15.504-13.831C20.384 346.673 0 301.146 0 250.862c0-50.284 20.384-95.811 53.336-128.764a182.982 182.982 0 0115.519-13.843l-.015-59.44C68.84 21.987 90.827 0 117.655 0zm178.313 136.994c-29.139-29.14-69.398-47.161-113.868-47.161s-84.73 18.021-113.869 47.161C39.092 166.132 21.07 206.392 21.07 250.862s18.022 84.73 47.161 113.868c29.139 29.14 69.399 47.161 113.869 47.161s84.729-18.021 113.868-47.161c29.139-29.138 47.161-69.398 47.161-113.868s-18.022-84.73-47.161-113.868z"/><path fill="#D2DADA" d="M182.1 89.451c89.146 0 161.411 72.265 161.411 161.411 0 89.143-72.265 161.408-161.411 161.408-89.143 0-161.412-72.265-161.412-161.408 0-89.146 72.269-161.411 161.412-161.411z"/><path fill="#E9F2F2" d="M182.097 102.327c82.033 0 148.534 66.502 148.534 148.535S264.13 399.397 182.097 399.397c-82.033 0-148.535-66.502-148.535-148.535s66.502-148.535 148.535-148.535z"/><path fill="#4D4D4D" fill-rule="nonzero" d="M65.858 191.92c-3.379-1.955-4.531-6.286-2.576-9.664a7.076 7.076 0 019.664-2.576l11.004 6.353a7.076 7.076 0 012.576 9.664c-1.955 3.379-6.286 4.531-9.664 2.576l-11.004-6.353zm45.056-50.236c-1.94-3.378-.775-7.697 2.603-9.636a7.062 7.062 0 019.637 2.603l6.35 11.004a7.062 7.062 0 01-2.603 9.637c-3.378 1.939-7.697.775-9.636-2.604l-6.351-11.004zm130.122-7.06c1.954-3.379 6.285-4.531 9.664-2.576 3.378 1.955 4.53 6.285 2.575 9.664l-6.353 11.004a7.076 7.076 0 01-9.664 2.576c-3.379-1.955-4.531-6.286-2.576-9.664l6.354-11.004zm-66.005-13.888a7.063 7.063 0 017.061-7.061 7.063 7.063 0 017.06 7.061l-.003 12.707a7.063 7.063 0 01-7.06 7.061 7.063 7.063 0 01-7.061-7.061l.003-12.707zm116.24 58.941c3.378-1.94 7.697-.775 9.636 2.603a7.062 7.062 0 01-2.603 9.637l-11.004 6.35a7.062 7.062 0 01-9.637-2.603c-1.939-3.378-.774-7.697 2.604-9.637l11.004-6.35zm20.951 64.123a7.063 7.063 0 017.061 7.061 7.063 7.063 0 01-7.061 7.06l-12.707-.003a7.064 7.064 0 01-7.061-7.06 7.064 7.064 0 017.061-7.061l12.707.003zm-13.887 66.004a7.076 7.076 0 012.576 9.664c-1.955 3.379-6.286 4.531-9.665 2.576l-11.004-6.353a7.076 7.076 0 01-2.576-9.664 7.076 7.076 0 019.664-2.576l11.005 6.353zm-45.054 50.233c1.94 3.378.775 7.697-2.603 9.636-3.378 1.94-7.697.775-9.636-2.603l-6.351-11.004a7.062 7.062 0 012.604-9.637c3.378-1.939 7.697-.775 9.636 2.604l6.35 11.004zm-64.129 20.951a7.063 7.063 0 01-7.06 7.061 7.063 7.063 0 01-7.061-7.061l.003-12.704a7.062 7.062 0 017.061-7.06 7.062 7.062 0 017.06 7.06l-.003 12.704zm-66.001-13.887a7.076 7.076 0 01-9.664 2.576 7.076 7.076 0 01-2.576-9.665l6.354-11.004c1.954-3.378 6.285-4.531 9.664-2.576 3.378 1.955 4.53 6.286 2.575 9.664l-6.353 11.005zm-50.233-45.057c-3.378 1.94-7.697.775-9.636-2.603a7.062 7.062 0 012.603-9.637l11.005-6.35a7.06 7.06 0 019.636 2.604 7.061 7.061 0 01-2.604 9.636l-11.004 6.35zM51.97 257.921a7.064 7.064 0 01-7.061-7.06 7.064 7.064 0 017.061-7.061l12.704.003a7.063 7.063 0 017.061 7.061 7.063 7.063 0 01-7.061 7.06l-12.704-.003z"/><path fill-rule="nonzero" d="M228.122 259.208l-31.65-.003c-2.879 4.949-8.236 8.275-14.372 8.275-9.177 0-16.618-7.441-16.618-16.618 0-5.742 2.914-10.801 7.343-13.787l.224-45.912a6.31 6.31 0 01-7.445-9.747l11.079-13.707a6.296 6.296 0 014.697-2.329h.021l.131-.003a6.299 6.299 0 015.208 2.577l10.46 14.184a6.319 6.319 0 01-1.358 8.825 6.316 6.316 0 01-6.065.773l-.218 44.273a16.693 16.693 0 016.919 6.516l31.647.003a6.314 6.314 0 019.673-7.466l13.948 10.768c3.273 2.53 3.273 7.537 0 10.07l-13.948 10.768a6.314 6.314 0 01-8.857-1.138 6.31 6.31 0 01-.819-6.322z"/><path fill="#F64A32" d="M179.961 248.004l5.032 2.858-45.957 80.79-5.032-2.857z"/><path fill="#E6E6E6" d="M182.1 242.979a7.88 7.88 0 017.88 7.883 7.878 7.878 0 01-7.88 7.88 7.88 7.88 0 110-15.763z"/></svg>