<?xml version="1.0" ?>
<!DOCTYPE svg  PUBLIC '-//W3C//DTD SVG 1.1//EN'  'http://www.w3.org/Graphics/SVG/1.1/DTD/svg11.dtd'>
<!-- Uploaded to: SVG Repo, www.svgrepo.com, Generator: SVG Repo Mixer Tools -->
<svg fill="#000000" width="800px" height="800px" viewBox="0 0 32 32" style="fill-rule:evenodd;clip-rule:evenodd;stroke-linejoin:round;stroke-miterlimit:2;" version="1.1" xml:space="preserve" xmlns="http://www.w3.org/2000/svg" xmlns:serif="http://www.serif.com/" xmlns:xlink="http://www.w3.org/1999/xlink">
<g transform="matrix(1,0,0,1,-192,-432)">
<path d="M212,437C212,435.895 211.105,435 210,435C208.778,435 207.222,435 206,435C204.895,435 204,435.895 204,437C204,438.745 204,441 204,441L212,441L212,437Z" style="fill:rgb(144,224,239);"/>
<g transform="matrix(1,0,0,-1,0,896)">
<path d="M212,437C212,435.895 211.105,435 210,435C208.778,435 207.222,435 206,435C204.895,435 204,435.895 204,437C204,438.745 204,441 204,441L212,441L212,437Z" style="fill:rgb(144,224,239);"/>
</g>
<g transform="matrix(1.23077,0,0,1.23077,-49.8462,-104)">
<circle cx="209.5" cy="448.5" r="6.5" style="fill:rgb(144,224,239);"/>
</g>
<path d="M203,440.517L203,437C203,435.343 204.343,434 206,434L210,434C211.657,434 213,435.343 213,437L213,440.517C215.411,442.132 217,444.882 217,448C217,451.118 215.411,453.868 213,455.483L213,459C213,460.657 211.657,462 210,462L206,462C204.343,462 203,460.657 203,459L203,455.483C200.589,453.868 199,451.118 199,448C199,444.882 200.589,442.132 203,440.517ZM205,456.487L205,459C205,459.552 205.448,460 206,460C206,460 210,460 210,460C210.552,460 211,459.552 211,459L211,456.487C210.061,456.819 209.052,457 208,457C206.948,457 205.939,456.819 205,456.487ZM208,441C211.863,441 215,444.137 215,448C215,451.863 211.863,455 208,455C204.137,455 201,451.863 201,448C201,444.137 204.137,441 208,441ZM207,444L207,448C207,448.334 207.167,448.647 207.445,448.832L210.445,450.832C210.905,451.138 211.526,451.014 211.832,450.555C212.138,450.095 212.014,449.474 211.555,449.168L209,447.465C209,447.465 209,444 209,444C209,443.448 208.552,443 208,443C207.448,443 207,443.448 207,444ZM211,439.513L211,437C211,436.448 210.552,436 210,436C210,436 206,436 206,436C205.448,436 205,436.448 205,437L205,439.513C205.939,439.181 206.948,439 208,439C209.052,439 210.061,439.181 211,439.513Z" style="fill:rgb(25,144,167);"/>
</g>
</svg>